<?xml version="1.0"?>
<svg version="1.1" xmlns="http://www.w3.org/2000/svg" width="450px" height="200px" style=""><path fill="#" d="M51.787109375,118.486328125q0-2.109375,0.5419921875-4.2333984375t1.6845703125-3.80859375t2.9150390625-2.7392578125t4.1748046875-1.0546875q1.025390625,0,2.255859375,0.2490234375t2.2705078125,0.791015625t1.7578125,1.40625t0.7177734375,2.1240234375q0,0.791015625-0.41015625,1.0546875t-1.083984375,0.263671875l-0.205078125-0.29296875t-0.5712890625-0.7470703125t-0.7763671875-0.966796875t-0.791015625-0.8642578125q-1.201171875-1.201171875-2.255859375-1.2890625l-0.234375,0q-0.87890625,0-1.640625,0.52734375q-0.849609375,0.64453125-1.5087890625,1.81640625t-1.0986328125,2.490234375t-0.6884765625,2.666015625t-0.2490234375,2.2265625q0,1.201171875,0.2783203125,2.7392578125t0.9375,2.9150390625t1.669921875,2.314453125t2.5927734375,0.9375q1.435546875,0,2.607421875-0.703125t2.2412109375-1.5673828125t2.0947265625-1.552734375t2.109375-0.6884765625q0.46875,0,0.9521484375,0.1171875t0.4833984375,0.615234375l0,0.17578125q-0.52734375,1.376953125-1.787109375,2.431640625t-2.8271484375,1.8310546875t-3.251953125,1.1572265625t-3.0029296875,0.380859375q-2.4609375,0-4.3212890625-0.8056640625t-3.0908203125-2.2119140625t-1.8603515625-3.3837890625t-0.6298828125-4.3212890625z M77.35361328125,122.265625l0-2.75390625q0-1.494140625,0.0732421875-4.2333984375t0.1904296875-6.005859375t0.322265625-6.8115234375t0.46875-6.6943359375t0.6298828125-5.6396484375t0.8349609375-3.69140625q0.29296875-0.673828125,0.966796875-0.849609375t1.318359375-0.17578125q1.025390625,0,1.8017578125,0.4541015625t0.7763671875,1.6552734375l-0.52734375,0.5859375q-1.025390625,6.767578125-1.318359375,13.59375t-0.41015625,13.65234375q0.732421875-1.142578125,1.6552734375-2.2412109375t2.05078125-1.9482421875t2.431640625-1.3623046875t2.8564453125-0.5126953125q1.9921875,0,3.2958984375,1.201171875t2.1533203125,3.1201171875t1.259765625,4.2919921875t0.6298828125,4.74609375t0.3076171875,4.4970703125t0.263671875,3.5302734375q-0.556640625,0.76171875-1.640625,0.76171875l-0.087890625,0q-0.46875,0-1.025390625-0.1171875t-0.732421875-0.5859375l0.05859375,0.05859375q-0.41015625-0.908203125-0.556640625-2.6220703125t-0.234375-3.779296875t-0.3076171875-4.2333984375t-0.6591796875-3.92578125t-1.2890625-2.900390625t-2.28515625-1.201171875l-0.17578125,0q-1.728515625,0-2.900390625,1.0546875q-1.23046875,1.11328125-1.9921875,2.9296875t-1.171875,4.04296875t-0.6298828125,4.2919921875t-0.3369140625,3.75t-0.29296875,2.4755859375q-0.17578125,0.673828125-1.0400390625,0.8935546875t-1.4794921875,0.2197265625q-1.435546875,0-2.34375-0.8203125q-0.673828125-1.611328125-0.791015625-4.013671875t-0.1171875-4.6875z M105.3810546875,119.072265625q0-1.9921875,0.5419921875-3.837890625t1.6259765625-3.2958984375t2.7099609375-2.314453125t3.7646484375-0.8642578125q1.318359375,0,2.9150390625,0.3955078125t3.0029296875,1.171875t2.34375,1.9775390625t0.9375,2.75390625q0,0.732421875-0.2490234375,1.11328125t-1.0107421875,0.380859375l-0.322265625-0.05859375q0.849609375,2.28515625,1.46484375,4.6875t1.201171875,4.8046875q0.234375,0.46875,0.3515625,0.8349609375t0.1171875,0.7177734375q0,0.46875-0.263671875,0.7763671875t-0.6884765625,0.4541015625t-0.87890625,0.205078125t-0.8056640625,0.05859375q-1.259765625,0-1.8896484375-0.439453125t-0.908203125-1.201171875t-0.3369140625-1.7138671875t-0.234375-1.9189453125q-0.3515625,1.142578125-0.9228515625,2.2265625t-1.34765625,1.9482421875t-1.8310546875,1.376953125t-2.373046875,0.5126953125q-1.93359375,0-3.251953125-1.11328125t-2.1240234375-2.7392578125t-1.171875-3.4716796875t-0.3662109375-3.427734375z M109.5412109375,118.662109375q0,1.083984375,0.146484375,2.28515625t0.4833984375,2.373046875t0.8642578125,2.2119140625t1.318359375,1.8310546875q1.435546875-1.552734375,2.1240234375-3.779296875t1.23046875-4.2919921875t1.23046875-3.544921875t2.1240234375-1.4794921875q0.908203125,0,1.5234375,0.322265625q-0.29296875-0.732421875-0.966796875-1.4208984375t-1.5087890625-1.259765625t-1.728515625-0.9375t-1.6845703125-0.3662109375q-0.234375,0-0.5419921875,0.0732421875t-0.4833984375,0.0146484375q-1.201171875,0.3515625-1.9775390625,1.2158203125t-1.259765625,2.0361328125t-0.6884765625,2.40234375t-0.205078125,2.314453125z M129.57060546875,100.46875q0-0.41015625,0.87890625-0.703125t1.9921875-0.4833984375t2.1533203125-0.2783203125t1.4208984375-0.146484375q0-0.791015625,0.05859375-1.5966796875t0.322265625-1.435546875t0.8349609375-1.0107421875t1.5966796875-0.380859375q0.849609375,0,1.2890625,0.205078125t0.9375,0.849609375q0.1171875,0.3515625,0.1171875,0.673828125l0,0.9814453125t-0.05859375,1.0107421875q1.083984375-0.1171875,2.1533203125-0.2783203125t2.1533203125-0.1611328125q0.791015625,0,1.083984375,0.029296875t0.5859375,0.703125q0.234375,0.673828125-0.5712890625,1.025390625t-1.93359375,0.52734375t-2.2412109375,0.263671875t-1.34765625,0.087890625q-0.3515625,5.0390625-0.7177734375,9.990234375t-0.3662109375,10.048828125q0,2.28515625,0.146484375,4.716796875t0.8203125,4.599609375q0.17578125,0.673828125,0.5859375,1.259765625t0.41015625,1.259765625q0,0.41015625-0.322265625,0.64453125t-0.7763671875,0.3955078125t-0.908203125,0.1904296875t-0.7470703125,0.029296875q-1.845703125,0-2.8125-1.376953125t-1.3916015625-3.2958984375t-0.4541015625-3.9404296875t-0.029296875-3.28125q0-2.578125,0.1025390625-5.2734375t0.2490234375-5.33203125t0.41015625-5.15625t0.615234375-4.6875q-1.025390625,0.1171875-2.0068359375,0.263671875t-2.0068359375,0.146484375q-0.234375,0-0.6298828125-0.029296875t-0.7470703125-0.146484375t-0.6005859375-0.322265625t-0.2490234375-0.5859375z M152.031640625,121.416015625q0-1.083984375,0.0439453125-3.1787109375t0.3076171875-4.2626953125t0.8642578125-3.92578125t1.8017578125-2.255859375q0.29296875-0.1171875,0.9521484375-0.205078125t1.318359375-0.05859375t1.171875,0.234375t0.5126953125,0.76171875q0,0.1171875-0.1171875,0.322265625t-0.615234375,0.64453125q-0.908203125,2.51953125-1.11328125,5.009765625t-0.205078125,5.126953125q0,1.552734375,0.1025390625,3.10546875t0.3369140625,3.134765625q0.46875-0.673828125,0.9521484375-2.021484375t1.025390625-2.9443359375t1.11328125-3.2373046875t1.2890625-2.98828125t1.58203125-2.2265625t1.9482421875-0.87890625q1.201171875,0,2.0068359375,1.5087890625t1.494140625,3.486328125t1.2890625,4.013671875t1.4501953125,3.1201171875q0.41015625-0.41015625,0.6591796875-1.0693359375t0.3955078125-1.4208984375t0.17578125-1.5087890625t0.029296875-1.2744140625q0-1.318359375-0.3955078125-2.8564453125t-0.8349609375-2.8857421875t-0.8349609375-2.2705078125t-0.3955078125-1.0693359375q0-0.234375,0.2490234375-0.380859375t0.5712890625-0.234375t0.6591796875-0.1171875t0.5126953125-0.029296875q1.083984375,0,1.8603515625,1.201171875t1.23046875,2.783203125t0.6591796875,3.2080078125t0.205078125,2.5341796875q0,1.142578125-0.17578125,2.431640625t-0.6591796875,2.3876953125t-1.4208984375,1.8310546875t-2.373046875,0.732421875q-1.728515625,0-2.841796875-0.966796875t-1.8017578125-2.34375t-1.083984375-3.0029296875t-0.7470703125-2.9443359375q-0.673828125,1.552734375-1.23046875,3.92578125t-1.40625,4.658203125t-2.16796875,3.896484375t-3.427734375,1.611328125t-3.0029296875-1.0400390625t-1.4208984375-2.8564453125l0.05859375,0.05859375q-0.3515625-1.318359375-0.4541015625-2.63671875t-0.1025390625-2.63671875z M182.28564453125,118.369140625q0-2.6953125,0.6298828125-5.2880859375t1.0693359375-5.1708984375q0.1171875-0.673828125,0.9228515625-0.8349609375t1.3623046875-0.1611328125q0.966796875,0,1.552734375,0.29296875q0.234375,0.1171875,0.439453125,0.263671875t0.205078125,0.380859375q0,2.51953125-0.6005859375,4.921875t-0.6005859375,5.09765625q0,0.908203125,0.1318359375,1.7138671875t0.2490234375,1.5966796875l0.17578125,0.849609375q0,0.234375,0.029296875,0.41015625t0.087890625,0.41015625q0,0.52734375-0.7470703125,0.7177734375t-1.3037109375,0.1904296875q-0.849609375,0-1.5673828125-0.3369140625t-1.1279296875-1.1572265625l-0.41015625-0.849609375q-0.3515625-0.673828125-0.3515625-1.5087890625t-0.146484375-1.5380859375z M184.16064453125,100.732421875l0-0.556640625q0-1.376953125,0.6884765625-2.4609375t2.0654296875-1.083984375q0.17578125,0,0.3369140625,0.029296875t0.3369140625,0.029296875q0.3515625,0.05859375,0.9228515625,0.2783203125t0.5712890625,0.6884765625l0,0.05859375q-0.1171875,0.234375-0.146484375,0.4833984375t-0.146484375,0.4248046875l0.05859375-0.05859375q-0.3515625,0.908203125-0.5712890625,1.46484375t-0.4833984375,0.8935546875t-0.6591796875,0.4833984375t-1.1279296875,0.146484375q-0.1171875,0-0.41015625-0.029296875t-0.6298828125-0.1171875t-0.5712890625-0.234375t-0.234375-0.439453125z M193.8775390625,100.46875q0-0.41015625,0.87890625-0.703125t1.9921875-0.4833984375t2.1533203125-0.2783203125t1.4208984375-0.146484375q0-0.791015625,0.05859375-1.5966796875t0.322265625-1.435546875t0.8349609375-1.0107421875t1.5966796875-0.380859375q0.849609375,0,1.2890625,0.205078125t0.9375,0.849609375q0.1171875,0.3515625,0.1171875,0.673828125l0,0.9814453125t-0.05859375,1.0107421875q1.083984375-0.1171875,2.1533203125-0.2783203125t2.1533203125-0.1611328125q0.791015625,0,1.083984375,0.029296875t0.5859375,0.703125q0.234375,0.673828125-0.5712890625,1.025390625t-1.93359375,0.52734375t-2.2412109375,0.263671875t-1.34765625,0.087890625q-0.3515625,5.0390625-0.7177734375,9.990234375t-0.3662109375,10.048828125q0,2.28515625,0.146484375,4.716796875t0.8203125,4.599609375q0.17578125,0.673828125,0.5859375,1.259765625t0.41015625,1.259765625q0,0.41015625-0.322265625,0.64453125t-0.7763671875,0.3955078125t-0.908203125,0.1904296875t-0.7470703125,0.029296875q-1.845703125,0-2.8125-1.376953125t-1.3916015625-3.2958984375t-0.4541015625-3.9404296875t-0.029296875-3.28125q0-2.578125,0.1025390625-5.2734375t0.2490234375-5.33203125t0.41015625-5.15625t0.615234375-4.6875q-1.025390625,0.1171875-2.0068359375,0.263671875t-2.0068359375,0.146484375q-0.234375,0-0.6298828125-0.029296875t-0.7470703125-0.146484375t-0.6005859375-0.322265625t-0.2490234375-0.5859375z M216.27998046875,122.265625l0-2.75390625q0-1.494140625,0.0732421875-4.2333984375t0.1904296875-6.005859375t0.322265625-6.8115234375t0.46875-6.6943359375t0.6298828125-5.6396484375t0.8349609375-3.69140625q0.29296875-0.673828125,0.966796875-0.849609375t1.318359375-0.17578125q1.025390625,0,1.8017578125,0.4541015625t0.7763671875,1.6552734375l-0.52734375,0.5859375q-1.025390625,6.767578125-1.318359375,13.59375t-0.41015625,13.65234375q0.732421875-1.142578125,1.6552734375-2.2412109375t2.05078125-1.9482421875t2.431640625-1.3623046875t2.8564453125-0.5126953125q1.9921875,0,3.2958984375,1.201171875t2.1533203125,3.1201171875t1.259765625,4.2919921875t0.6298828125,4.74609375t0.3076171875,4.4970703125t0.263671875,3.5302734375q-0.556640625,0.76171875-1.640625,0.76171875l-0.087890625,0q-0.46875,0-1.025390625-0.1171875t-0.732421875-0.5859375l0.05859375,0.05859375q-0.41015625-0.908203125-0.556640625-2.6220703125t-0.234375-3.779296875t-0.3076171875-4.2333984375t-0.6591796875-3.92578125t-1.2890625-2.900390625t-2.28515625-1.201171875l-0.17578125,0q-1.728515625,0-2.900390625,1.0546875q-1.23046875,1.11328125-1.9921875,2.9296875t-1.171875,4.04296875t-0.6298828125,4.2919921875t-0.3369140625,3.75t-0.29296875,2.4755859375q-0.17578125,0.673828125-1.0400390625,0.8935546875t-1.4794921875,0.2197265625q-1.435546875,0-2.34375-0.8203125q-0.673828125-1.611328125-0.791015625-4.013671875t-0.1171875-4.6875z M244.307421875,119.072265625q0-1.9921875,0.5419921875-3.837890625t1.6259765625-3.2958984375t2.7099609375-2.314453125t3.7646484375-0.8642578125q1.318359375,0,2.9150390625,0.3955078125t3.0029296875,1.171875t2.34375,1.9775390625t0.9375,2.75390625q0,0.732421875-0.2490234375,1.11328125t-1.0107421875,0.380859375l-0.322265625-0.05859375q0.849609375,2.28515625,1.46484375,4.6875t1.201171875,4.8046875q0.234375,0.46875,0.3515625,0.8349609375t0.1171875,0.7177734375q0,0.46875-0.263671875,0.7763671875t-0.6884765625,0.4541015625t-0.87890625,0.205078125t-0.8056640625,0.05859375q-1.259765625,0-1.8896484375-0.439453125t-0.908203125-1.201171875t-0.3369140625-1.7138671875t-0.234375-1.9189453125q-0.3515625,1.142578125-0.9228515625,2.2265625t-1.34765625,1.9482421875t-1.8310546875,1.376953125t-2.373046875,0.5126953125q-1.93359375,0-3.251953125-1.11328125t-2.1240234375-2.7392578125t-1.171875-3.4716796875t-0.3662109375-3.427734375z M248.467578125,118.662109375q0,1.083984375,0.146484375,2.28515625t0.4833984375,2.373046875t0.8642578125,2.2119140625t1.318359375,1.8310546875q1.435546875-1.552734375,2.1240234375-3.779296875t1.23046875-4.2919921875t1.23046875-3.544921875t2.1240234375-1.4794921875q0.908203125,0,1.5234375,0.322265625q-0.29296875-0.732421875-0.966796875-1.4208984375t-1.5087890625-1.259765625t-1.728515625-0.9375t-1.6845703125-0.3662109375q-0.234375,0-0.5419921875,0.0732421875t-0.4833984375,0.0146484375q-1.201171875,0.3515625-1.9775390625,1.2158203125t-1.259765625,2.0361328125t-0.6884765625,2.40234375t-0.205078125,2.314453125z M269.72744140625,119.21875l0-0.849609375q0-1.0546875,0.05859375-1.9921875q0.05859375-1.318359375,0.05859375-2.16796875q0-0.46875,0.05859375-1.0693359375t0.29296875-0.9521484375q0.29296875-0.29296875,0.6884765625-0.6005859375t0.8642578125-0.3076171875q1.494140625,0,2.34375,0.3369140625t0.908203125,1.3916015625l0.1171875,0.908203125q0.52734375-1.259765625,1.40625-3.1201171875t2.0361328125-3.544921875t2.607421875-2.87109375t3.0615234375-1.1865234375q1.494140625,0,2.4609375,1.40625t1.5380859375,3.5888671875t0.8056640625,4.86328125t0.322265625,5.2587890625t0.1171875,4.7021484375t0.205078125,3.2080078125q0.1171875,0.908203125,0.3955078125,1.9189453125t0.2783203125,1.8603515625q0,0.234375-0.3369140625,0.4541015625t-0.7177734375,0.3662109375t-0.7763671875,0.234375t-0.5712890625,0.087890625q-1.142578125,0-1.6259765625-1.7138671875t-0.6005859375-4.2919921875t-0.1171875-5.5810546875t-0.205078125-5.5810546875t-0.8349609375-4.2919921875t-2.0068359375-1.7724609375q-1.259765625,0-2.607421875,1.6259765625t-2.314453125,4.3212890625q-0.9375,2.6953125-1.2890625,6.123046875q-0.1171875,1.083984375-0.1171875,2.16796875q0,2.373046875,0.498046875,4.74609375q0.05859375,0.41015625-0.3369140625,0.615234375t-0.9814453125,0.322265625t-1.1865234375,0.146484375t-0.9228515625,0.029296875q-1.142578125,0-1.8310546875-0.8056640625t-1.0693359375-2.0654296875t-0.5126953125-2.8271484375t-0.1611328125-3.0908203125z M296.3486328125,112.5390625q0-0.849609375,0.4833984375-1.11328125t1.2158203125-0.263671875q1.201171875,0,1.8310546875,0.4541015625t0.6298828125,1.5966796875q0,1.376953125,0.205078125,3.4423828125t0.6005859375,4.013671875t0.9375,3.3544921875t1.1279296875,1.40625q1.083984375,0,1.9189453125-1.669921875t1.46484375-4.1015625t1.083984375-5.2294921875t0.6298828125-4.9951171875q0.1171875-1.201171875,0.5712890625-1.7431640625t1.6552734375-0.5419921875q1.376953125,0,2.0068359375,1.142578125t0.8056640625,2.8125q0.146484375,1.435546875,0.146484375,2.98828125l0,0.498046875l0,1.171875q0,1.11328125,0.029296875,1.9921875l0.849609375,17.958984375l0.1171875,2.98828125q0.05859375,0.41015625,0.087890625,0.7763671875t0.029296875,0.7763671875q0,1.669921875-0.7177734375,2.1533203125t-2.3291015625,0.4833984375q-0.3515625,0-0.8935546875-0.05859375t-1.0546875-0.234375t-0.87890625-0.4833984375t-0.3662109375-0.7763671875l0.1171875-0.29296875q0.146484375-1.7578125,0.146484375-3.69140625l0-0.615234375q-0.029296875-2.28515625-0.146484375-4.62890625t-0.263671875-4.6875t-0.146484375-4.51171875q-0.41015625,0.908203125-0.9521484375,1.875t-1.259765625,1.7431640625t-1.6259765625,1.2890625t-2.05078125,0.5126953125q-1.669921875,0-2.75390625-0.87890625t-1.6845703125-2.28515625t-0.8642578125-3.1494140625t-0.3515625-3.486328125t-0.1171875-3.3251953125t-0.234375-2.666015625z M320.18662109375,119.62890625q0-1.669921875,0.4248046875-3.4423828125t1.34765625-3.193359375t2.3291015625-2.314453125t3.3984375-0.8935546875q1.494140625,0,3.1494140625,0.5126953125t3.0322265625,1.46484375t2.2412109375,2.3291015625t0.8642578125,3.076171875q0,2.05078125-0.7470703125,3.896484375t-2.0947265625,3.2958984375t-3.1494140625,2.28515625t-3.9111328125,0.8349609375q-1.728515625,0-3.017578125-0.6298828125t-2.1533203125-1.6845703125t-1.2890625-2.490234375t-0.4248046875-3.046875z M324.49326171875,119.5703125q0,0.52734375,0.1611328125,1.552734375t0.4833984375,2.0068359375t0.8349609375,1.69921875t1.2451171875,0.6591796875q1.552734375-0.17578125,2.5634765625-1.0107421875t1.640625-2.0361328125t0.87890625-2.607421875t0.2490234375-2.666015625q0-1.611328125-0.6298828125-2.6953125t-2.0654296875-1.7578125q0,0.05859375,0.05859375,0.05859375t0.05859375-0.05859375l-0.732421875-0.17578125q-0.29296875-0.1171875-0.7177734375-0.263671875t-0.8349609375-0.64453125q-1.142578125,0.41015625-1.7724609375,1.0546875t-0.9521484375,1.5673828125t-0.3955078125,2.2119140625t-0.0732421875,3.10546875z M342.41328125,119.21875l0-0.849609375q0-1.0546875,0.05859375-1.9921875q0.05859375-1.318359375,0.05859375-2.16796875q0-0.46875,0.05859375-1.0693359375t0.29296875-0.9521484375q0.29296875-0.29296875,0.6884765625-0.6005859375t0.8642578125-0.3076171875q1.494140625,0,2.34375,0.3369140625t0.908203125,1.3916015625l0.1171875,0.908203125q0.52734375-1.259765625,1.40625-3.1201171875t2.0361328125-3.544921875t2.607421875-2.87109375t3.0615234375-1.1865234375q1.494140625,0,2.4609375,1.40625t1.5380859375,3.5888671875t0.8056640625,4.86328125t0.322265625,5.2587890625t0.1171875,4.7021484375t0.205078125,3.2080078125q0.1171875,0.908203125,0.3955078125,1.9189453125t0.2783203125,1.8603515625q0,0.234375-0.3369140625,0.4541015625t-0.7177734375,0.3662109375t-0.7763671875,0.234375t-0.5712890625,0.087890625q-1.142578125,0-1.6259765625-1.7138671875t-0.6005859375-4.2919921875t-0.1171875-5.5810546875t-0.205078125-5.5810546875t-0.8349609375-4.2919921875t-2.0068359375-1.7724609375q-1.259765625,0-2.607421875,1.6259765625t-2.314453125,4.3212890625q-0.9375,2.6953125-1.2890625,6.123046875q-0.1171875,1.083984375-0.1171875,2.16796875q0,2.373046875,0.498046875,4.74609375q0.05859375,0.41015625-0.3369140625,0.615234375t-0.9814453125,0.322265625t-1.1865234375,0.146484375t-0.9228515625,0.029296875q-1.142578125,0-1.8310546875-0.8056640625t-1.0693359375-2.0654296875t-0.5126953125-2.8271484375t-0.1611328125-3.0908203125z M369.03447265625,120.2734375q0-2.05078125,0.4541015625-4.833984375t1.5380859375-5.2734375t2.8564453125-4.2333984375t4.4677734375-1.7431640625q2.51953125,0,3.779296875,1.4501953125t1.259765625,3.9111328125q0,1.611328125-0.6005859375,3.5302734375t-1.7138671875,3.6328125t-2.63671875,2.8564453125t-3.3984375,1.142578125l-0.76171875-0.05859375q0,0.791015625,0.234375,2.1240234375t0.6884765625,2.6513671875t1.171875,2.314453125t1.7431640625,0.99609375q1.494140625,0,2.87109375-1.201171875t2.607421875-2.666015625t2.28515625-2.666015625t1.93359375-1.201171875q0.46875,0,0.966796875,0.146484375t0.556640625,0.8203125q0,0.41015625-0.2197265625,0.673828125t-0.3955078125,0.5859375q-0.908203125,1.552734375-1.9775390625,2.958984375t-2.4169921875,2.548828125t-2.9443359375,1.8017578125t-3.5302734375,0.6591796875q-2.51953125,0-4.189453125-0.8935546875t-2.6953125-2.40234375t-1.4794921875-3.486328125t-0.4541015625-4.1455078125z M374.27861328125,118.046875l0.8203125,0.732421875q0.5859375,0.52734375,1.171875,0.234375t1.0546875-1.0693359375t0.8642578125-1.9189453125t0.703125-2.34375t0.4541015625-2.34375t0.146484375-1.904296875l0-0.99609375t-0.087890625-1.0546875t-0.3076171875-0.8349609375t-0.6884765625-0.4248046875q-0.146484375-0.029296875-0.263671875-0.029296875q-0.99609375,0-1.69921875,1.259765625q-0.76171875,1.40625-1.23046875,3.4130859375t-0.673828125,4.1162109375t-0.263671875,3.1640625z"/><path fill="#c7328b" d=""/></svg>
