<?xml version="1.0"?>
<svg version="1.1" xmlns="http://www.w3.org/2000/svg" width="400px" height="200px" style="border: dashed 2px #aaa"><path fill="#" d="M51.66796875,117.25390625q0-1.96875,0.505859375-3.951171875t1.572265625-3.5546875t2.720703125-2.556640625t3.896484375-0.984375q0.95703125,0,2.10546875,0.232421875t2.119140625,0.73828125t1.640625,1.3125t0.669921875,1.982421875q0,0.73828125-0.3828125,0.984375t-1.01171875,0.24609375l-0.19140625-0.2734375t-0.533203125-0.697265625t-0.724609375-0.90234375t-0.73828125-0.806640625q-1.12109375-1.12109375-2.10546875-1.203125l-0.21875,0q-0.8203125,0-1.53125,0.4921875q-0.79296875,0.6015625-1.408203125,1.6953125t-1.025390625,2.32421875t-0.642578125,2.48828125t-0.232421875,2.078125q0,1.12109375,0.259765625,2.556640625t0.875,2.720703125t1.55859375,2.16015625t2.419921875,0.875q1.33984375,0,2.43359375-0.65625t2.091796875-1.462890625t1.955078125-1.44921875t1.96875-0.642578125q0.4375,0,0.888671875,0.109375t0.451171875,0.57421875l0,0.1640625q-0.4921875,1.28515625-1.66796875,2.26953125t-2.638671875,1.708984375t-3.03515625,1.080078125t-2.802734375,0.35546875q-2.296875,0-4.033203125-0.751953125t-2.884765625-2.064453125t-1.736328125-3.158203125t-0.587890625-4.033203125z M75.5300390625,120.78125l0-2.5703125q0-1.39453125,0.068359375-3.951171875t0.177734375-5.60546875t0.30078125-6.357421875t0.4375-6.248046875t0.587890625-5.263671875t0.779296875-3.4453125q0.2734375-0.62890625,0.90234375-0.79296875t1.23046875-0.1640625q0.95703125,0,1.681640625,0.423828125t0.724609375,1.544921875l-0.4921875,0.546875q-0.95703125,6.31640625-1.23046875,12.6875t-0.3828125,12.7421875q0.68359375-1.06640625,1.544921875-2.091796875t1.9140625-1.818359375t2.26953125-1.271484375t2.666015625-0.478515625q1.859375,0,3.076171875,1.12109375t2.009765625,2.912109375t1.17578125,4.005859375t0.587890625,4.4296875t0.287109375,4.197265625t0.24609375,3.294921875q-0.51953125,0.7109375-1.53125,0.7109375l-0.08203125,0q-0.4375,0-0.95703125-0.109375t-0.68359375-0.546875l0.0546875,0.0546875q-0.3828125-0.84765625-0.51953125-2.447265625t-0.21875-3.52734375t-0.287109375-3.951171875t-0.615234375-3.6640625t-1.203125-2.70703125t-2.1328125-1.12109375l-0.1640625,0q-1.61328125,0-2.70703125,0.984375q-1.1484375,1.0390625-1.859375,2.734375t-1.09375,3.7734375t-0.587890625,4.005859375t-0.314453125,3.5t-0.2734375,2.310546875q-0.1640625,0.62890625-0.970703125,0.833984375t-1.380859375,0.205078125q-1.33984375,0-2.1875-0.765625q-0.62890625-1.50390625-0.73828125-3.74609375t-0.109375-4.375z M101.688984375,117.80078125q0-1.859375,0.505859375-3.58203125t1.517578125-3.076171875t2.529296875-2.16015625t3.513671875-0.806640625q1.23046875,0,2.720703125,0.369140625t2.802734375,1.09375t2.1875,1.845703125t0.875,2.5703125q0,0.68359375-0.232421875,1.0390625t-0.943359375,0.35546875l-0.30078125-0.0546875q0.79296875,2.1328125,1.3671875,4.375t1.12109375,4.484375q0.21875,0.4375,0.328125,0.779296875t0.109375,0.669921875q0,0.4375-0.24609375,0.724609375t-0.642578125,0.423828125t-0.8203125,0.19140625t-0.751953125,0.0546875q-1.17578125,0-1.763671875-0.41015625t-0.84765625-1.12109375t-0.314453125-1.599609375t-0.21875-1.791015625q-0.328125,1.06640625-0.861328125,2.078125t-1.2578125,1.818359375t-1.708984375,1.28515625t-2.21484375,0.478515625q-1.8046875,0-3.03515625-1.0390625t-1.982421875-2.556640625t-1.09375-3.240234375t-0.341796875-3.19921875z M105.571796875,117.41796875q0,1.01171875,0.13671875,2.1328125t0.451171875,2.21484375t0.806640625,2.064453125t1.23046875,1.708984375q1.33984375-1.44921875,1.982421875-3.52734375t1.1484375-4.005859375t1.1484375-3.30859375t1.982421875-1.380859375q0.84765625,0,1.421875,0.30078125q-0.2734375-0.68359375-0.90234375-1.326171875t-1.408203125-1.17578125t-1.61328125-0.875t-1.572265625-0.341796875q-0.21875,0-0.505859375,0.068359375t-0.451171875,0.013671875q-1.12109375,0.328125-1.845703125,1.134765625t-1.17578125,1.900390625t-0.642578125,2.2421875t-0.19140625,2.16015625z M124.2658984375,100.4375q0-0.3828125,0.8203125-0.65625t1.859375-0.451171875t2.009765625-0.259765625t1.326171875-0.13671875q0-0.73828125,0.0546875-1.490234375t0.30078125-1.33984375t0.779296875-0.943359375t1.490234375-0.35546875q0.79296875,0,1.203125,0.19140625t0.875,0.79296875q0.109375,0.328125,0.109375,0.62890625l0,0.916015625t-0.0546875,0.943359375q1.01171875-0.109375,2.009765625-0.259765625t2.009765625-0.150390625q0.73828125,0,1.01171875,0.02734375t0.546875,0.65625q0.21875,0.62890625-0.533203125,0.95703125t-1.8046875,0.4921875t-2.091796875,0.24609375t-1.2578125,0.08203125q-0.328125,4.703125-0.669921875,9.32421875t-0.341796875,9.37890625q0,2.1328125,0.13671875,4.40234375t0.765625,4.29296875q0.1640625,0.62890625,0.546875,1.17578125t0.3828125,1.17578125q0,0.3828125-0.30078125,0.6015625t-0.724609375,0.369140625t-0.84765625,0.177734375t-0.697265625,0.02734375q-1.72265625,0-2.625-1.28515625t-1.298828125-3.076171875t-0.423828125-3.677734375t-0.02734375-3.0625q0-2.40625,0.095703125-4.921875t0.232421875-4.9765625t0.3828125-4.8125t0.57421875-4.375q-0.95703125,0.109375-1.873046875,0.24609375t-1.873046875,0.13671875q-0.21875,0-0.587890625-0.02734375t-0.697265625-0.13671875t-0.560546875-0.30078125t-0.232421875-0.546875z M145.22953125,119.98828125q0-1.01171875,0.041015625-2.966796875t0.287109375-3.978515625t0.806640625-3.6640625t1.681640625-2.10546875q0.2734375-0.109375,0.888671875-0.19140625t1.23046875-0.0546875t1.09375,0.21875t0.478515625,0.7109375q0,0.109375-0.109375,0.30078125t-0.57421875,0.6015625q-0.84765625,2.3515625-1.0390625,4.67578125t-0.19140625,4.78515625q0,1.44921875,0.095703125,2.8984375t0.314453125,2.92578125q0.4375-0.62890625,0.888671875-1.88671875t0.95703125-2.748046875t1.0390625-3.021484375t1.203125-2.7890625t1.4765625-2.078125t1.818359375-0.8203125q1.12109375,0,1.873046875,1.408203125t1.39453125,3.25390625t1.203125,3.74609375t1.353515625,2.912109375q0.3828125-0.3828125,0.615234375-0.998046875t0.369140625-1.326171875t0.1640625-1.408203125t0.02734375-1.189453125q0-1.23046875-0.369140625-2.666015625t-0.779296875-2.693359375t-0.779296875-2.119140625t-0.369140625-0.998046875q0-0.21875,0.232421875-0.35546875t0.533203125-0.21875t0.615234375-0.109375t0.478515625-0.02734375q1.01171875,0,1.736328125,1.12109375t1.1484375,2.59765625t0.615234375,2.994140625t0.19140625,2.365234375q0,1.06640625-0.1640625,2.26953125t-0.615234375,2.228515625t-1.326171875,1.708984375t-2.21484375,0.68359375q-1.61328125,0-2.65234375-0.90234375t-1.681640625-2.1875t-1.01171875-2.802734375t-0.697265625-2.748046875q-0.62890625,1.44921875-1.1484375,3.6640625t-1.3125,4.34765625t-2.0234375,3.63671875t-3.19921875,1.50390625t-2.802734375-0.970703125t-1.326171875-2.666015625l0.0546875,0.0546875q-0.328125-1.23046875-0.423828125-2.4609375t-0.095703125-2.4609375z M173.4666015625,117.14453125q0-2.515625,0.587890625-4.935546875t0.998046875-4.826171875q0.109375-0.62890625,0.861328125-0.779296875t1.271484375-0.150390625q0.90234375,0,1.44921875,0.2734375q0.21875,0.109375,0.41015625,0.24609375t0.19140625,0.35546875q0,2.3515625-0.560546875,4.59375t-0.560546875,4.7578125q0,0.84765625,0.123046875,1.599609375t0.232421875,1.490234375l0.1640625,0.79296875q0,0.21875,0.02734375,0.3828125t0.08203125,0.3828125q0,0.4921875-0.697265625,0.669921875t-1.216796875,0.177734375q-0.79296875,0-1.462890625-0.314453125t-1.052734375-1.080078125l-0.3828125-0.79296875q-0.328125-0.62890625-0.328125-1.408203125t-0.13671875-1.435546875z M175.2166015625,100.68359375l0-0.51953125q0-1.28515625,0.642578125-2.296875t1.927734375-1.01171875q0.1640625,0,0.314453125,0.02734375t0.314453125,0.02734375q0.328125,0.0546875,0.861328125,0.259765625t0.533203125,0.642578125l0,0.0546875q-0.109375,0.21875-0.13671875,0.451171875t-0.13671875,0.396484375l0.0546875-0.0546875q-0.328125,0.84765625-0.533203125,1.3671875t-0.451171875,0.833984375t-0.615234375,0.451171875t-1.052734375,0.13671875q-0.109375,0-0.3828125-0.02734375t-0.587890625-0.109375t-0.533203125-0.21875t-0.21875-0.41015625z M184.285703125,100.4375q0-0.3828125,0.8203125-0.65625t1.859375-0.451171875t2.009765625-0.259765625t1.326171875-0.13671875q0-0.73828125,0.0546875-1.490234375t0.30078125-1.33984375t0.779296875-0.943359375t1.490234375-0.35546875q0.79296875,0,1.203125,0.19140625t0.875,0.79296875q0.109375,0.328125,0.109375,0.62890625l0,0.916015625t-0.0546875,0.943359375q1.01171875-0.109375,2.009765625-0.259765625t2.009765625-0.150390625q0.73828125,0,1.01171875,0.02734375t0.546875,0.65625q0.21875,0.62890625-0.533203125,0.95703125t-1.8046875,0.4921875t-2.091796875,0.24609375t-1.2578125,0.08203125q-0.328125,4.703125-0.669921875,9.32421875t-0.341796875,9.37890625q0,2.1328125,0.13671875,4.40234375t0.765625,4.29296875q0.1640625,0.62890625,0.546875,1.17578125t0.3828125,1.17578125q0,0.3828125-0.30078125,0.6015625t-0.724609375,0.369140625t-0.84765625,0.177734375t-0.697265625,0.02734375q-1.72265625,0-2.625-1.28515625t-1.298828125-3.076171875t-0.423828125-3.677734375t-0.02734375-3.0625q0-2.40625,0.095703125-4.921875t0.232421875-4.9765625t0.3828125-4.8125t0.57421875-4.375q-0.95703125,0.109375-1.873046875,0.24609375t-1.873046875,0.13671875q-0.21875,0-0.587890625-0.02734375t-0.697265625-0.13671875t-0.560546875-0.30078125t-0.232421875-0.546875z M205.1946484375,120.78125l0-2.5703125q0-1.39453125,0.068359375-3.951171875t0.177734375-5.60546875t0.30078125-6.357421875t0.4375-6.248046875t0.587890625-5.263671875t0.779296875-3.4453125q0.2734375-0.62890625,0.90234375-0.79296875t1.23046875-0.1640625q0.95703125,0,1.681640625,0.423828125t0.724609375,1.544921875l-0.4921875,0.546875q-0.95703125,6.31640625-1.23046875,12.6875t-0.3828125,12.7421875q0.68359375-1.06640625,1.544921875-2.091796875t1.9140625-1.818359375t2.26953125-1.271484375t2.666015625-0.478515625q1.859375,0,3.076171875,1.12109375t2.009765625,2.912109375t1.17578125,4.005859375t0.587890625,4.4296875t0.287109375,4.197265625t0.24609375,3.294921875q-0.51953125,0.7109375-1.53125,0.7109375l-0.08203125,0q-0.4375,0-0.95703125-0.109375t-0.68359375-0.546875l0.0546875,0.0546875q-0.3828125-0.84765625-0.51953125-2.447265625t-0.21875-3.52734375t-0.287109375-3.951171875t-0.615234375-3.6640625t-1.203125-2.70703125t-2.1328125-1.12109375l-0.1640625,0q-1.61328125,0-2.70703125,0.984375q-1.1484375,1.0390625-1.859375,2.734375t-1.09375,3.7734375t-0.587890625,4.005859375t-0.314453125,3.5t-0.2734375,2.310546875q-0.1640625,0.62890625-0.970703125,0.833984375t-1.380859375,0.205078125q-1.33984375,0-2.1875-0.765625q-0.62890625-1.50390625-0.73828125-3.74609375t-0.109375-4.375z M231.35359375,117.80078125q0-1.859375,0.505859375-3.58203125t1.517578125-3.076171875t2.529296875-2.16015625t3.513671875-0.806640625q1.23046875,0,2.720703125,0.369140625t2.802734375,1.09375t2.1875,1.845703125t0.875,2.5703125q0,0.68359375-0.232421875,1.0390625t-0.943359375,0.35546875l-0.30078125-0.0546875q0.79296875,2.1328125,1.3671875,4.375t1.12109375,4.484375q0.21875,0.4375,0.328125,0.779296875t0.109375,0.669921875q0,0.4375-0.24609375,0.724609375t-0.642578125,0.423828125t-0.8203125,0.19140625t-0.751953125,0.0546875q-1.17578125,0-1.763671875-0.41015625t-0.84765625-1.12109375t-0.314453125-1.599609375t-0.21875-1.791015625q-0.328125,1.06640625-0.861328125,2.078125t-1.2578125,1.818359375t-1.708984375,1.28515625t-2.21484375,0.478515625q-1.8046875,0-3.03515625-1.0390625t-1.982421875-2.556640625t-1.09375-3.240234375t-0.341796875-3.19921875z M235.23640625,117.41796875q0,1.01171875,0.13671875,2.1328125t0.451171875,2.21484375t0.806640625,2.064453125t1.23046875,1.708984375q1.33984375-1.44921875,1.982421875-3.52734375t1.1484375-4.005859375t1.1484375-3.30859375t1.982421875-1.380859375q0.84765625,0,1.421875,0.30078125q-0.2734375-0.68359375-0.90234375-1.326171875t-1.408203125-1.17578125t-1.61328125-0.875t-1.572265625-0.341796875q-0.21875,0-0.505859375,0.068359375t-0.451171875,0.013671875q-1.12109375,0.328125-1.845703125,1.134765625t-1.17578125,1.900390625t-0.642578125,2.2421875t-0.19140625,2.16015625z M255.0789453125,117.9375l0-0.79296875q0-0.984375,0.0546875-1.859375q0.0546875-1.23046875,0.0546875-2.0234375q0-0.4375,0.0546875-0.998046875t0.2734375-0.888671875q0.2734375-0.2734375,0.642578125-0.560546875t0.806640625-0.287109375q1.39453125,0,2.1875,0.314453125t0.84765625,1.298828125l0.109375,0.84765625q0.4921875-1.17578125,1.3125-2.912109375t1.900390625-3.30859375t2.43359375-2.6796875t2.857421875-1.107421875q1.39453125,0,2.296875,1.3125t1.435546875,3.349609375t0.751953125,4.5390625t0.30078125,4.908203125t0.109375,4.388671875t0.19140625,2.994140625q0.109375,0.84765625,0.369140625,1.791015625t0.259765625,1.736328125q0,0.21875-0.314453125,0.423828125t-0.669921875,0.341796875t-0.724609375,0.21875t-0.533203125,0.08203125q-1.06640625,0-1.517578125-1.599609375t-0.560546875-4.005859375t-0.109375-5.208984375t-0.19140625-5.208984375t-0.779296875-4.005859375t-1.873046875-1.654296875q-1.17578125,0-2.43359375,1.517578125t-2.16015625,4.033203125q-0.875,2.515625-1.203125,5.71484375q-0.109375,1.01171875-0.109375,2.0234375q0,2.21484375,0.46484375,4.4296875q0.0546875,0.3828125-0.314453125,0.57421875t-0.916015625,0.30078125t-1.107421875,0.13671875t-0.861328125,0.02734375q-1.06640625,0-1.708984375-0.751953125t-0.998046875-1.927734375t-0.478515625-2.638671875t-0.150390625-2.884765625z M279.925390625,111.703125q0-0.79296875,0.451171875-1.0390625t1.134765625-0.24609375q1.12109375,0,1.708984375,0.423828125t0.587890625,1.490234375q0,1.28515625,0.19140625,3.212890625t0.560546875,3.74609375t0.875,3.130859375t1.052734375,1.3125q1.01171875,0,1.791015625-1.55859375t1.3671875-3.828125t1.01171875-4.880859375t0.587890625-4.662109375q0.109375-1.12109375,0.533203125-1.626953125t1.544921875-0.505859375q1.28515625,0,1.873046875,1.06640625t0.751953125,2.625q0.13671875,1.33984375,0.13671875,2.7890625l0,0.46484375l0,1.09375q0,1.0390625,0.02734375,1.859375l0.79296875,16.76171875l0.109375,2.7890625q0.0546875,0.3828125,0.08203125,0.724609375t0.02734375,0.724609375q0,1.55859375-0.669921875,2.009765625t-2.173828125,0.451171875q-0.328125,0-0.833984375-0.0546875t-0.984375-0.21875t-0.8203125-0.451171875t-0.341796875-0.724609375l0.109375-0.2734375q0.13671875-1.640625,0.13671875-3.4453125l0-0.57421875q-0.02734375-2.1328125-0.13671875-4.3203125t-0.24609375-4.375t-0.13671875-4.2109375q-0.3828125,0.84765625-0.888671875,1.75t-1.17578125,1.626953125t-1.517578125,1.203125t-1.9140625,0.478515625q-1.55859375,0-2.5703125-0.8203125t-1.572265625-2.1328125t-0.806640625-2.939453125t-0.328125-3.25390625t-0.109375-3.103515625t-0.21875-2.48828125z M302.1741796875,118.3203125q0-1.55859375,0.396484375-3.212890625t1.2578125-2.98046875t2.173828125-2.16015625t3.171875-0.833984375q1.39453125,0,2.939453125,0.478515625t2.830078125,1.3671875t2.091796875,2.173828125t0.806640625,2.87109375q0,1.9140625-0.697265625,3.63671875t-1.955078125,3.076171875t-2.939453125,2.1328125t-3.650390625,0.779296875q-1.61328125,0-2.81640625-0.587890625t-2.009765625-1.572265625t-1.203125-2.32421875t-0.396484375-2.84375z M306.1937109375,118.265625q0,0.4921875,0.150390625,1.44921875t0.451171875,1.873046875t0.779296875,1.5859375t1.162109375,0.615234375q1.44921875-0.1640625,2.392578125-0.943359375t1.53125-1.900390625t0.8203125-2.43359375t0.232421875-2.48828125q0-1.50390625-0.587890625-2.515625t-1.927734375-1.640625q0,0.0546875,0.0546875,0.0546875t0.0546875-0.0546875l-0.68359375-0.1640625q-0.2734375-0.109375-0.669921875-0.24609375t-0.779296875-0.6015625q-1.06640625,0.3828125-1.654296875,0.984375t-0.888671875,1.462890625t-0.369140625,2.064453125t-0.068359375,2.8984375z M322.9190625,117.9375l0-0.79296875q0-0.984375,0.0546875-1.859375q0.0546875-1.23046875,0.0546875-2.0234375q0-0.4375,0.0546875-0.998046875t0.2734375-0.888671875q0.2734375-0.2734375,0.642578125-0.560546875t0.806640625-0.287109375q1.39453125,0,2.1875,0.314453125t0.84765625,1.298828125l0.109375,0.84765625q0.4921875-1.17578125,1.3125-2.912109375t1.900390625-3.30859375t2.43359375-2.6796875t2.857421875-1.107421875q1.39453125,0,2.296875,1.3125t1.435546875,3.349609375t0.751953125,4.5390625t0.30078125,4.908203125t0.109375,4.388671875t0.19140625,2.994140625q0.109375,0.84765625,0.369140625,1.791015625t0.259765625,1.736328125q0,0.21875-0.314453125,0.423828125t-0.669921875,0.341796875t-0.724609375,0.21875t-0.533203125,0.08203125q-1.06640625,0-1.517578125-1.599609375t-0.560546875-4.005859375t-0.109375-5.208984375t-0.19140625-5.208984375t-0.779296875-4.005859375t-1.873046875-1.654296875q-1.17578125,0-2.43359375,1.517578125t-2.16015625,4.033203125q-0.875,2.515625-1.203125,5.71484375q-0.109375,1.01171875-0.109375,2.0234375q0,2.21484375,0.46484375,4.4296875q0.0546875,0.3828125-0.314453125,0.57421875t-0.916015625,0.30078125t-1.107421875,0.13671875t-0.861328125,0.02734375q-1.06640625,0-1.708984375-0.751953125t-0.998046875-1.927734375t-0.478515625-2.638671875t-0.150390625-2.884765625z M347.7655078125,118.921875q0-1.9140625,0.423828125-4.51171875t1.435546875-4.921875t2.666015625-3.951171875t4.169921875-1.626953125q2.3515625,0,3.52734375,1.353515625t1.17578125,3.650390625q0,1.50390625-0.560546875,3.294921875t-1.599609375,3.390625t-2.4609375,2.666015625t-3.171875,1.06640625l-0.7109375-0.0546875q0,0.73828125,0.21875,1.982421875t0.642578125,2.474609375t1.09375,2.16015625t1.626953125,0.9296875q1.39453125,0,2.6796875-1.12109375t2.43359375-2.48828125t2.1328125-2.48828125t1.8046875-1.12109375q0.4375,0,0.90234375,0.13671875t0.51953125,0.765625q0,0.3828125-0.205078125,0.62890625t-0.369140625,0.546875q-0.84765625,1.44921875-1.845703125,2.76171875t-2.255859375,2.37890625t-2.748046875,1.681640625t-3.294921875,0.615234375q-2.3515625,0-3.91015625-0.833984375t-2.515625-2.2421875t-1.380859375-3.25390625t-0.423828125-3.869140625z M352.6600390625,116.84375l0.765625,0.68359375q0.546875,0.4921875,1.09375,0.21875t0.984375-0.998046875t0.806640625-1.791015625t0.65625-2.1875t0.423828125-2.1875t0.13671875-1.77734375l0-0.9296875t-0.08203125-0.984375t-0.287109375-0.779296875t-0.642578125-0.396484375q-0.13671875-0.02734375-0.24609375-0.02734375q-0.9296875,0-1.5859375,1.17578125q-0.7109375,1.3125-1.1484375,3.185546875t-0.62890625,3.841796875t-0.24609375,2.953125z"/><path fill="#c7328b" d=""/></svg>
